<svg width="589.941" height="72.706" viewBox="0 0 589.941 72.706" xmlns="http://www.w3.org/2000/svg">
    <g id="svgGroup" stroke-linecap="round" fill-rule="evenodd" font-size="9pt" stroke="#ffffff" stroke-width="0.25mm"
       fill="#ffffff" style="stroke:#ffffff;stroke-width:0.25mm;fill:#ffffff">
        <path d="M 422.754 60.986 L 422.754 62.988 A 5.26 5.26 0 0 1 422.691 63.786 A 6.218 6.218 0 0 1 422.632 64.111 A 1.75 1.75 0 0 1 422.07 65.088 A 37.572 37.572 0 0 1 417.629 67.965 A 41.179 41.179 0 0 1 417.31 68.14 A 35.698 35.698 0 0 1 412.87 70.159 A 40.245 40.245 0 0 1 411.768 70.557 Q 408.789 71.582 405.347 72.144 A 43.1 43.1 0 0 1 400.608 72.639 A 52.124 52.124 0 0 1 397.949 72.705 Q 389.063 72.705 381.738 70.093 A 38.575 38.575 0 0 1 373.019 65.728 A 34.072 34.072 0 0 1 369.165 62.695 Q 363.916 57.91 361.035 51.196 Q 358.154 44.482 358.154 36.279 A 35.334 35.334 0 0 1 359.351 27.148 A 36.153 36.153 0 0 1 362.842 18.604 A 35.053 35.053 0 0 1 368.506 11.157 A 36.332 36.332 0 0 1 376.196 5.273 A 38.611 38.611 0 0 1 384.114 1.853 A 43.909 43.909 0 0 1 385.718 1.392 Q 390.918 0 396.973 0 Q 399.316 0 401.758 0.22 Q 404.199 0.439 406.592 0.855 A 55 55 0 0 1 411.067 1.819 A 50.714 50.714 0 0 1 411.206 1.855 Q 413.428 2.441 415.43 3.174 L 418.75 12.207 L 418.359 12.402 A 25.618 25.618 0 0 0 415.536 10.216 A 30.847 30.847 0 0 0 413.965 9.229 A 34.85 34.85 0 0 0 408.643 6.689 A 36.661 36.661 0 0 0 402.71 5.005 A 32.409 32.409 0 0 0 396.436 4.395 A 34.268 34.268 0 0 0 389.491 5.074 A 28.89 28.89 0 0 0 385.156 6.323 A 24.74 24.74 0 0 0 376.809 11.463 A 23.977 23.977 0 0 0 376.343 11.914 A 24.57 24.57 0 0 0 371.432 18.961 A 29.277 29.277 0 0 0 370.605 20.898 Q 368.555 26.221 368.555 33.008 A 50.271 50.271 0 0 0 369.356 42.139 A 42.78 42.78 0 0 0 370.508 46.875 Q 372.461 53.271 376.318 57.959 Q 380.176 62.646 385.962 65.308 A 28.373 28.373 0 0 0 393.297 67.495 A 38.398 38.398 0 0 0 399.463 67.969 A 37.346 37.346 0 0 0 402.506 67.851 Q 404.038 67.725 405.387 67.467 A 22.634 22.634 0 0 0 405.566 67.432 Q 407.754 66.994 409.39 66.379 A 15.515 15.515 0 0 0 410.107 66.089 A 13.551 13.551 0 0 0 411.276 65.518 Q 411.831 65.21 412.269 64.884 A 5.858 5.858 0 0 0 412.915 64.331 Q 413.867 63.379 413.867 62.598 L 413.867 60.693 A 204.422 204.422 0 0 0 413.853 58.26 Q 413.842 57.301 413.821 56.432 A 109.727 109.727 0 0 0 413.77 54.785 A 86.453 86.453 0 0 0 413.683 53.01 Q 413.63 52.134 413.563 51.358 A 45.804 45.804 0 0 0 413.477 50.464 Q 413.327 49.062 413.149 47.961 A 28.874 28.874 0 0 0 413.037 47.314 Q 412.793 45.996 412.451 44.873 L 412.451 44.678 L 424.17 44.678 L 424.17 44.873 A 21.875 21.875 0 0 0 423.954 45.694 Q 423.832 46.193 423.714 46.76 A 39.946 39.946 0 0 0 423.608 47.29 A 28.679 28.679 0 0 0 423.417 48.406 Q 423.267 49.396 423.145 50.586 A 53.559 53.559 0 0 0 423.012 52.107 Q 422.962 52.779 422.922 53.516 A 94.921 94.921 0 0 0 422.852 55.054 Q 422.754 57.617 422.754 60.986 Z M 117.627 38.77 L 117.627 71.875 L 115.723 71.875 L 76.904 33.691 L 76.904 51.074 Q 76.904 55.469 76.953 58.74 Q 77.002 62.012 77.124 64.38 A 68.525 68.525 0 0 0 77.229 66.05 Q 77.279 66.701 77.338 67.278 A 32.611 32.611 0 0 0 77.466 68.359 A 21.978 21.978 0 0 0 77.631 69.398 Q 77.717 69.861 77.816 70.26 A 9.752 9.752 0 0 0 78.027 70.996 L 78.027 71.191 L 70.703 71.191 L 70.703 70.996 A 10.821 10.821 0 0 0 70.936 70.183 Q 71.047 69.738 71.145 69.217 A 24.816 24.816 0 0 0 71.289 68.359 Q 71.457 67.252 71.579 65.786 A 67.052 67.052 0 0 0 71.68 64.38 Q 71.826 62.012 71.875 58.74 A 393.229 393.229 0 0 0 71.905 56.129 Q 71.914 54.975 71.919 53.711 A 699.69 699.69 0 0 0 71.924 51.074 L 71.924 38.77 A 679.991 679.991 0 0 0 71.917 35.635 Q 71.906 33.157 71.875 31.128 Q 71.826 27.881 71.68 25.513 Q 71.579 23.885 71.432 22.614 A 31.012 31.012 0 0 0 71.289 21.533 A 23.964 23.964 0 0 0 71.11 20.495 Q 71.019 20.032 70.917 19.632 A 10.593 10.593 0 0 0 70.703 18.896 L 70.703 18.701 L 73.73 18.701 L 112.598 57.08 L 112.598 38.77 A 679.991 679.991 0 0 0 112.591 35.635 Q 112.579 33.157 112.549 31.128 Q 112.5 27.881 112.378 25.513 Q 112.256 23.145 112.061 21.533 A 20.287 20.287 0 0 0 111.909 20.495 Q 111.748 19.569 111.523 18.896 L 111.523 18.701 L 118.799 18.701 L 118.799 18.896 A 10.011 10.011 0 0 0 118.564 19.729 Q 118.376 20.514 118.237 21.533 Q 118.086 22.641 117.97 24.107 A 80.658 80.658 0 0 0 117.871 25.513 A 90.537 90.537 0 0 0 117.775 27.412 Q 117.741 28.255 117.716 29.184 A 167.091 167.091 0 0 0 117.676 31.128 A 386.528 386.528 0 0 0 117.646 33.725 Q 117.636 34.874 117.632 36.135 A 697.78 697.78 0 0 0 117.627 38.77 Z M 277.588 62.5 L 277.588 65.283 A 5.533 5.533 0 0 1 277.571 65.732 Q 277.553 65.951 277.516 66.141 A 2.762 2.762 0 0 1 277.466 66.357 A 1.212 1.212 0 0 1 277.104 66.934 A 1.655 1.655 0 0 1 276.904 67.09 A 27.049 27.049 0 0 1 271.728 69.919 A 33.289 33.289 0 0 1 268.823 70.972 Q 264.544 72.308 258.899 72.405 A 51.927 51.927 0 0 1 258.008 72.412 A 42.253 42.253 0 0 1 250.547 71.779 A 34.311 34.311 0 0 1 245.288 70.41 Q 239.551 68.408 235.449 64.819 Q 231.348 61.23 229.077 56.201 A 25.823 25.823 0 0 1 226.915 47.687 A 31.047 31.047 0 0 1 226.807 45.068 A 25.945 25.945 0 0 1 228.882 34.912 A 26.41 26.41 0 0 1 234.863 26.172 A 28.376 28.376 0 0 1 241.913 21.186 A 33.952 33.952 0 0 1 244.36 20.068 A 30.379 30.379 0 0 1 252.115 18.07 A 38.741 38.741 0 0 1 256.982 17.773 A 57.922 57.922 0 0 1 261.833 17.97 A 49.511 49.511 0 0 1 263.916 18.188 A 41.119 41.119 0 0 1 270.215 19.482 L 273.877 28.271 L 273.389 28.613 Q 270.459 25.244 266.309 23.267 A 20.143 20.143 0 0 0 260.413 21.533 A 26.016 26.016 0 0 0 256.787 21.289 A 23.818 23.818 0 0 0 251.571 21.842 A 20.424 20.424 0 0 0 248.706 22.705 A 18.12 18.12 0 0 0 242.31 26.831 A 18.12 18.12 0 0 0 238.805 31.825 A 21.738 21.738 0 0 0 238.086 33.496 A 22.513 22.513 0 0 0 236.822 38.571 A 29.456 29.456 0 0 0 236.572 42.48 A 39.82 39.82 0 0 0 237.125 49.236 A 33.505 33.505 0 0 0 237.988 52.979 A 25.627 25.627 0 0 0 240.311 58.515 A 22.048 22.048 0 0 0 242.236 61.353 A 19.822 19.822 0 0 0 249.243 66.895 A 19.928 19.928 0 0 0 254.691 68.566 A 26.738 26.738 0 0 0 258.984 68.897 A 30.298 30.298 0 0 0 261.768 68.777 Q 264.507 68.524 266.308 67.731 A 8.738 8.738 0 0 0 266.431 67.676 A 9.284 9.284 0 0 0 267.468 67.125 Q 268.539 66.458 268.903 65.7 A 1.842 1.842 0 0 0 269.092 64.893 L 269.092 62.305 Q 269.092 59.766 269.043 57.91 Q 269.009 56.635 268.953 55.601 A 50.087 50.087 0 0 0 268.896 54.712 A 31.18 31.18 0 0 0 268.813 53.756 Q 268.764 53.285 268.704 52.87 A 16.401 16.401 0 0 0 268.628 52.393 A 17.826 17.826 0 0 0 268.389 51.243 A 14.525 14.525 0 0 0 268.213 50.586 L 268.213 50.391 L 278.613 50.391 L 278.613 50.586 A 10.334 10.334 0 0 0 278.437 51.176 Q 278.349 51.505 278.268 51.879 A 19.274 19.274 0 0 0 278.174 52.344 A 18.225 18.225 0 0 0 278.038 53.168 Q 277.933 53.9 277.856 54.785 A 53.628 53.628 0 0 0 277.772 55.916 Q 277.739 56.416 277.712 56.963 A 95.13 95.13 0 0 0 277.661 58.105 A 92.086 92.086 0 0 0 277.611 59.884 Q 277.594 60.795 277.589 61.811 A 161.059 161.059 0 0 0 277.588 62.5 Z M 474.951 53.174 L 474.951 38.574 A 666.03 666.03 0 0 0 474.944 35.473 Q 474.933 33.02 474.902 31.006 Q 474.854 27.783 474.707 25.439 A 101.648 101.648 0 0 0 474.631 24.315 Q 474.512 22.701 474.366 21.511 A 56.349 56.349 0 0 0 474.365 21.509 Q 474.225 20.367 474.034 19.515 A 11.154 11.154 0 0 0 473.877 18.897 L 473.877 18.701 L 481.055 18.701 L 481.055 18.896 A 11.58 11.58 0 0 0 480.857 19.709 Q 480.692 20.501 480.566 21.533 A 48.32 48.32 0 0 0 480.427 22.848 Q 480.371 23.44 480.321 24.107 A 101.209 101.209 0 0 0 480.225 25.513 A 90.537 90.537 0 0 0 480.128 27.412 Q 480.094 28.255 480.069 29.184 A 167.091 167.091 0 0 0 480.029 31.128 A 386.528 386.528 0 0 0 480 33.725 Q 479.99 34.874 479.985 36.135 A 697.78 697.78 0 0 0 479.98 38.77 L 479.98 52.783 Q 479.98 58.057 478.345 61.768 A 16.941 16.941 0 0 1 475.7 66.016 A 15.18 15.18 0 0 1 473.828 67.847 A 17.693 17.693 0 0 1 468.656 70.772 A 21.28 21.28 0 0 1 466.968 71.313 A 30.248 30.248 0 0 1 461.698 72.258 A 37.401 37.401 0 0 1 458.252 72.412 A 38.369 38.369 0 0 1 452.538 72.002 A 32.001 32.001 0 0 1 449.365 71.362 Q 445.264 70.313 442.261 68.018 A 15.737 15.737 0 0 1 437.861 62.735 A 18.513 18.513 0 0 1 437.524 62.061 Q 435.791 58.398 435.791 53.174 L 435.791 38.77 A 340.004 340.004 0 0 0 435.777 35.635 Q 435.754 33.157 435.693 31.128 A 145.56 145.56 0 0 0 435.606 28.816 Q 435.554 27.677 435.487 26.671 A 75.497 75.497 0 0 0 435.4 25.513 Q 435.266 23.885 435.109 22.614 A 40.342 40.342 0 0 0 434.961 21.533 A 23.964 23.964 0 0 0 434.782 20.495 Q 434.69 20.032 434.589 19.632 A 10.593 10.593 0 0 0 434.375 18.896 L 434.375 18.701 L 445.654 18.701 L 445.654 18.896 A 11.11 11.11 0 0 0 445.413 19.74 Q 445.305 20.175 445.21 20.68 A 24.596 24.596 0 0 0 445.068 21.509 A 35.199 35.199 0 0 0 444.896 22.805 Q 444.828 23.39 444.767 24.049 A 73.929 73.929 0 0 0 444.653 25.439 A 98.566 98.566 0 0 0 444.535 27.321 Q 444.491 28.156 444.453 29.078 A 182.755 182.755 0 0 0 444.385 31.006 Q 444.287 34.229 444.287 38.574 L 444.287 53.174 A 23.642 23.642 0 0 0 444.457 56.099 Q 444.646 57.608 445.043 58.874 A 11.562 11.562 0 0 0 445.605 60.327 A 13.243 13.243 0 0 0 447.234 62.978 A 10.812 10.812 0 0 0 449.072 64.795 A 12.787 12.787 0 0 0 453.955 67.114 A 23.875 23.875 0 0 0 459.57 67.773 A 24.393 24.393 0 0 0 465.259 67.114 Q 468.018 66.455 470.19 64.795 A 11.021 11.021 0 0 0 472.908 61.738 A 13.763 13.763 0 0 0 473.657 60.327 A 12.739 12.739 0 0 0 474.519 57.684 Q 474.803 56.373 474.9 54.84 A 26.253 26.253 0 0 0 474.951 53.174 Z M 583.838 53.174 L 583.838 38.574 A 666.03 666.03 0 0 0 583.831 35.473 Q 583.82 33.02 583.789 31.006 Q 583.74 27.783 583.594 25.439 A 101.648 101.648 0 0 0 583.517 24.315 Q 583.399 22.701 583.252 21.511 A 56.349 56.349 0 0 0 583.252 21.509 Q 583.111 20.367 582.92 19.515 A 11.154 11.154 0 0 0 582.764 18.897 L 582.764 18.701 L 589.941 18.701 L 589.941 18.896 A 11.58 11.58 0 0 0 589.743 19.709 Q 589.578 20.501 589.453 21.533 A 48.32 48.32 0 0 0 589.314 22.848 Q 589.258 23.44 589.208 24.107 A 101.209 101.209 0 0 0 589.111 25.513 A 90.537 90.537 0 0 0 589.015 27.412 Q 588.981 28.255 588.956 29.184 A 167.091 167.091 0 0 0 588.916 31.128 A 386.528 386.528 0 0 0 588.886 33.725 Q 588.877 34.874 588.872 36.135 A 697.78 697.78 0 0 0 588.867 38.77 L 588.867 52.783 Q 588.867 58.057 587.231 61.768 A 16.941 16.941 0 0 1 584.587 66.016 A 15.18 15.18 0 0 1 582.715 67.847 A 17.693 17.693 0 0 1 577.543 70.772 A 21.28 21.28 0 0 1 575.854 71.313 A 30.248 30.248 0 0 1 570.584 72.258 A 37.401 37.401 0 0 1 567.139 72.412 A 38.369 38.369 0 0 1 561.424 72.002 A 32.001 32.001 0 0 1 558.252 71.362 Q 554.15 70.313 551.147 68.018 A 15.737 15.737 0 0 1 546.747 62.735 A 18.513 18.513 0 0 1 546.411 62.061 Q 544.678 58.398 544.678 53.174 L 544.678 38.77 A 340.004 340.004 0 0 0 544.664 35.635 Q 544.641 33.157 544.58 31.128 A 145.56 145.56 0 0 0 544.493 28.816 Q 544.441 27.677 544.373 26.671 A 75.497 75.497 0 0 0 544.287 25.513 Q 544.153 23.885 543.995 22.614 A 40.342 40.342 0 0 0 543.848 21.533 A 23.964 23.964 0 0 0 543.668 20.495 Q 543.577 20.032 543.476 19.632 A 10.593 10.593 0 0 0 543.262 18.896 L 543.262 18.701 L 554.541 18.701 L 554.541 18.896 A 11.11 11.11 0 0 0 554.3 19.74 Q 554.192 20.175 554.096 20.68 A 24.596 24.596 0 0 0 553.955 21.509 A 35.199 35.199 0 0 0 553.782 22.805 Q 553.715 23.39 553.654 24.049 A 73.929 73.929 0 0 0 553.54 25.439 A 98.566 98.566 0 0 0 553.422 27.321 Q 553.377 28.156 553.34 29.078 A 182.755 182.755 0 0 0 553.271 31.006 Q 553.174 34.229 553.174 38.574 L 553.174 53.174 A 23.642 23.642 0 0 0 553.344 56.099 Q 553.533 57.608 553.93 58.874 A 11.562 11.562 0 0 0 554.492 60.327 A 13.243 13.243 0 0 0 556.12 62.978 A 10.812 10.812 0 0 0 557.959 64.795 A 12.787 12.787 0 0 0 562.842 67.114 A 23.875 23.875 0 0 0 568.457 67.773 A 24.393 24.393 0 0 0 574.146 67.114 Q 576.904 66.455 579.077 64.795 A 11.021 11.021 0 0 0 581.795 61.738 A 13.763 13.763 0 0 0 582.544 60.327 A 12.739 12.739 0 0 0 583.405 57.684 Q 583.689 56.373 583.787 54.84 A 26.253 26.253 0 0 0 583.838 53.174 Z M 162.207 18.115 L 160.303 23.389 Q 158.984 23.047 157.324 22.754 A 44.063 44.063 0 0 0 156.14 22.574 Q 155.61 22.501 155.022 22.43 A 85.564 85.564 0 0 0 153.784 22.29 A 36.688 36.688 0 0 0 151.842 22.14 Q 150.845 22.088 149.731 22.075 A 64.652 64.652 0 0 0 148.975 22.07 Q 147.998 22.07 146.729 22.144 A 98.896 98.896 0 0 0 144.879 22.267 A 87.867 87.867 0 0 0 144.287 22.314 A 1138.605 1138.605 0 0 1 141.504 22.51 L 141.504 41.797 A 251.059 251.059 0 0 0 145.208 41.725 Q 147.021 41.676 148.633 41.602 Q 151.807 41.455 154.053 41.211 A 61.812 61.812 0 0 0 156.238 41.012 Q 157.234 40.903 158.116 40.767 A 34.93 34.93 0 0 0 158.691 40.674 L 157.52 46.484 A 145.209 145.209 0 0 0 152.1 45.898 A 104.332 104.332 0 0 0 149.634 45.673 A 137.778 137.778 0 0 0 146.924 45.483 A 93.269 93.269 0 0 0 142.813 45.323 A 81.188 81.188 0 0 0 141.504 45.313 L 141.504 67.48 A 99.571 99.571 0 0 0 145.862 67.389 A 77.012 77.012 0 0 0 149.854 67.114 A 152.103 152.103 0 0 0 152.573 66.829 Q 154.724 66.583 156.494 66.309 A 80.168 80.168 0 0 0 159.656 65.735 A 59.967 59.967 0 0 0 162.5 65.088 L 161.377 71.484 A 46.115 46.115 0 0 0 160.954 71.458 Q 160.271 71.419 159.13 71.368 A 323.562 323.562 0 0 0 159.009 71.362 A 106.825 106.825 0 0 0 156.473 71.28 A 121.197 121.197 0 0 0 155.591 71.265 A 1921.448 1921.448 0 0 1 153.864 71.24 A 1577.647 1577.647 0 0 1 152.246 71.216 A 420.609 420.609 0 0 0 151.547 71.205 Q 150.542 71.191 150.098 71.191 L 131.592 71.191 L 131.592 70.996 Q 131.838 70.258 132.046 69.217 A 27.262 27.262 0 0 0 132.202 68.359 A 30.764 30.764 0 0 0 132.39 67.044 Q 132.462 66.452 132.525 65.786 A 63.776 63.776 0 0 0 132.642 64.38 Q 132.759 62.752 132.842 60.697 A 187.389 187.389 0 0 0 132.91 58.74 A 196.732 196.732 0 0 0 132.97 56.129 Q 133.008 53.821 133.008 51.074 L 133.008 38.77 A 340.004 340.004 0 0 0 132.994 35.635 Q 132.971 33.157 132.91 31.128 A 181.181 181.181 0 0 0 132.827 28.816 Q 132.748 26.993 132.642 25.513 Q 132.471 23.145 132.202 21.533 A 26.325 26.325 0 0 0 132.009 20.495 Q 131.912 20.032 131.808 19.632 A 11.589 11.589 0 0 0 131.592 18.896 L 131.592 18.701 A 2022.743 2022.743 0 0 0 141.406 18.677 A 863.788 863.788 0 0 0 146.252 18.64 A 682.483 682.483 0 0 0 150.732 18.579 A 701.559 701.559 0 0 0 153.787 18.521 Q 156.192 18.469 158.13 18.408 Q 160.8 18.324 161.895 18.168 A 5.78 5.78 0 0 0 162.207 18.115 Z M 319.385 18.115 L 317.48 23.389 Q 316.162 23.047 314.502 22.754 A 44.063 44.063 0 0 0 313.317 22.574 Q 312.788 22.501 312.199 22.43 A 85.564 85.564 0 0 0 310.962 22.29 A 36.688 36.688 0 0 0 309.02 22.14 Q 308.023 22.088 306.908 22.075 A 64.652 64.652 0 0 0 306.152 22.07 Q 305.176 22.07 303.906 22.144 A 98.896 98.896 0 0 0 302.057 22.267 A 87.867 87.867 0 0 0 301.465 22.314 A 1138.605 1138.605 0 0 1 298.682 22.51 L 298.682 41.797 A 251.059 251.059 0 0 0 302.386 41.725 Q 304.199 41.676 305.811 41.602 Q 308.984 41.455 311.23 41.211 A 61.812 61.812 0 0 0 313.416 41.012 Q 314.411 40.903 315.294 40.767 A 34.93 34.93 0 0 0 315.869 40.674 L 314.697 46.484 A 145.209 145.209 0 0 0 309.277 45.898 A 104.332 104.332 0 0 0 306.812 45.673 A 137.778 137.778 0 0 0 304.102 45.483 A 93.269 93.269 0 0 0 299.991 45.323 A 81.188 81.188 0 0 0 298.682 45.313 L 298.682 67.48 A 99.571 99.571 0 0 0 303.04 67.389 A 77.012 77.012 0 0 0 307.031 67.114 A 152.103 152.103 0 0 0 309.75 66.829 Q 311.902 66.583 313.672 66.309 A 80.168 80.168 0 0 0 316.833 65.735 A 59.967 59.967 0 0 0 319.678 65.088 L 318.555 71.484 A 46.115 46.115 0 0 0 318.132 71.458 Q 317.449 71.419 316.307 71.368 A 323.562 323.562 0 0 0 316.187 71.362 A 106.825 106.825 0 0 0 313.651 71.28 A 121.197 121.197 0 0 0 312.769 71.265 A 1921.448 1921.448 0 0 1 311.041 71.24 A 1577.647 1577.647 0 0 1 309.424 71.216 A 420.609 420.609 0 0 0 308.724 71.205 Q 307.719 71.191 307.275 71.191 L 288.77 71.191 L 288.77 70.996 Q 289.016 70.258 289.224 69.217 A 27.262 27.262 0 0 0 289.38 68.359 A 30.764 30.764 0 0 0 289.568 67.044 Q 289.64 66.452 289.703 65.786 A 63.776 63.776 0 0 0 289.819 64.38 Q 289.937 62.752 290.02 60.697 A 187.389 187.389 0 0 0 290.088 58.74 A 196.732 196.732 0 0 0 290.147 56.129 Q 290.186 53.821 290.186 51.074 L 290.186 38.77 A 340.004 340.004 0 0 0 290.172 35.635 Q 290.149 33.157 290.088 31.128 A 181.181 181.181 0 0 0 290.004 28.816 Q 289.926 26.993 289.819 25.513 Q 289.648 23.145 289.38 21.533 A 26.325 26.325 0 0 0 289.187 20.495 Q 289.09 20.032 288.986 19.632 A 11.589 11.589 0 0 0 288.77 18.896 L 288.77 18.701 A 2022.743 2022.743 0 0 0 298.584 18.677 A 863.788 863.788 0 0 0 303.43 18.64 A 682.483 682.483 0 0 0 307.91 18.579 A 701.559 701.559 0 0 0 310.965 18.521 Q 313.37 18.469 315.308 18.408 Q 317.978 18.324 319.073 18.168 A 5.78 5.78 0 0 0 319.385 18.115 Z M 521.436 63.379 L 511.133 48.877 Q 510.156 49.023 509.204 49.048 A 75.25 75.25 0 0 1 507.275 49.072 A 28.68 28.68 0 0 1 506.458 49.06 A 37.178 37.178 0 0 1 505.566 49.023 A 40.532 40.532 0 0 1 503.693 48.88 A 45.39 45.39 0 0 1 503.662 48.877 L 503.662 51.27 A 334.141 334.141 0 0 0 503.676 54.374 Q 503.687 55.604 503.708 56.726 A 188.353 188.353 0 0 0 503.76 58.862 A 179.05 179.05 0 0 0 503.843 61.171 Q 503.922 62.988 504.028 64.453 A 71.608 71.608 0 0 0 504.167 66.105 Q 504.229 66.748 504.298 67.318 A 33.832 33.832 0 0 0 504.443 68.384 Q 504.619 69.526 504.845 70.377 A 10.456 10.456 0 0 0 505.029 70.996 L 505.029 71.191 L 493.75 71.191 L 493.75 70.996 Q 493.996 70.258 494.204 69.217 A 27.262 27.262 0 0 0 494.36 68.359 A 30.764 30.764 0 0 0 494.548 67.044 Q 494.621 66.452 494.683 65.786 A 63.776 63.776 0 0 0 494.8 64.38 Q 494.917 62.752 495 60.697 A 187.389 187.389 0 0 0 495.068 58.74 A 196.732 196.732 0 0 0 495.128 56.129 Q 495.166 53.821 495.166 51.074 L 495.166 38.77 A 340.004 340.004 0 0 0 495.152 35.635 Q 495.129 33.157 495.068 31.128 A 181.181 181.181 0 0 0 494.985 28.816 Q 494.907 26.993 494.8 25.513 Q 494.629 23.145 494.36 21.533 A 26.325 26.325 0 0 0 494.167 20.495 Q 494.071 20.032 493.966 19.632 A 11.589 11.589 0 0 0 493.75 18.896 L 493.75 18.701 A 220.503 220.503 0 0 0 494.556 18.75 A 262.919 262.919 0 0 0 495.41 18.799 Q 496.143 18.848 497.046 18.872 A 67.779 67.779 0 0 0 498.877 18.897 A 23.432 23.432 0 0 0 499.753 18.878 Q 501.208 18.823 503.516 18.604 Q 505.871 18.379 508.856 18.327 A 107.203 107.203 0 0 1 510.742 18.311 A 29.798 29.798 0 0 1 515.109 18.617 A 23.549 23.549 0 0 1 518.384 19.336 Q 521.826 20.361 524.292 22.266 A 13.088 13.088 0 0 1 528.101 26.904 A 13.214 13.214 0 0 1 529.388 31.665 A 16.001 16.001 0 0 1 529.443 33.008 A 16.491 16.491 0 0 1 529.212 35.827 A 13.376 13.376 0 0 1 528.711 37.817 Q 527.979 39.99 526.66 41.724 Q 525.342 43.457 523.535 44.775 Q 521.729 46.094 519.531 47.07 L 529.736 61.475 Q 531.055 63.232 532.397 64.844 A 62.14 62.14 0 0 0 533.71 66.37 A 47.822 47.822 0 0 0 534.961 67.725 A 29.244 29.244 0 0 0 536.001 68.756 Q 536.652 69.368 537.256 69.849 A 13.437 13.437 0 0 0 537.879 70.317 Q 538.482 70.742 538.953 70.95 A 3.393 3.393 0 0 0 539.062 70.996 L 539.063 71.191 L 526.27 71.191 A 1.072 1.072 0 0 0 526.234 70.94 Q 526.133 70.531 525.747 69.814 A 13.682 13.682 0 0 0 525.659 69.653 A 29.25 29.25 0 0 0 524.82 68.242 A 35.926 35.926 0 0 0 524.243 67.358 A 95.423 95.423 0 0 0 522.632 65.039 Q 521.841 63.936 521.45 63.399 A 104.626 104.626 0 0 0 521.436 63.379 Z M 10.303 20.313 L 10.303 66.895 A 120.26 120.26 0 0 0 15.833 66.772 A 93.121 93.121 0 0 0 20.898 66.406 Q 25.732 65.918 29.346 65.283 A 89.293 89.293 0 0 0 33.362 64.539 A 69.177 69.177 0 0 0 37.012 63.672 L 35.596 71.582 A 20.126 20.126 0 0 0 35.266 71.558 Q 34.888 71.532 34.355 71.507 A 94.047 94.047 0 0 0 33.838 71.484 A 290.569 290.569 0 0 0 32.599 71.436 A 395.53 395.53 0 0 0 31.226 71.387 A 152.46 152.46 0 0 0 29.749 71.344 A 176.176 176.176 0 0 0 28.198 71.313 A 1765.373 1765.373 0 0 1 26.654 71.289 A 1488.258 1488.258 0 0 1 25.195 71.265 A 630.135 630.135 0 0 1 24.017 71.243 Q 23.478 71.233 22.996 71.223 A 363.774 363.774 0 0 1 22.681 71.216 A 179.205 179.205 0 0 0 22.169 71.205 Q 21.46 71.191 21.094 71.191 L 0 71.191 L 0 70.996 A 18.242 18.242 0 0 0 0.216 70.158 Q 0.305 69.781 0.391 69.355 A 37.234 37.234 0 0 0 0.562 68.457 A 30.271 30.271 0 0 0 0.753 67.219 Q 0.828 66.66 0.896 66.03 A 63.834 63.834 0 0 0 1.025 64.697 A 72.66 72.66 0 0 0 1.158 62.893 Q 1.208 62.091 1.248 61.205 A 135.484 135.484 0 0 0 1.318 59.351 A 176.916 176.916 0 0 0 1.378 56.878 Q 1.397 55.786 1.406 54.591 A 312.46 312.46 0 0 0 1.416 52.1 L 1.416 20.313 A 304.758 304.758 0 0 0 1.402 17.347 Q 1.379 14.999 1.318 13.062 A 133.296 133.296 0 0 0 1.231 10.853 Q 1.179 9.763 1.112 8.8 A 69.765 69.765 0 0 0 1.025 7.69 Q 0.892 6.138 0.724 4.94 A 28.751 28.751 0 0 0 0.562 3.906 A 36.101 36.101 0 0 0 0.357 2.84 Q 0.183 2.008 0 1.367 L 0 1.172 L 11.719 1.172 L 11.719 1.367 A 18.242 18.242 0 0 0 11.502 2.205 Q 11.414 2.583 11.327 3.008 A 37.234 37.234 0 0 0 11.157 3.906 Q 10.973 4.944 10.835 6.337 A 57.335 57.335 0 0 0 10.718 7.69 Q 10.6 9.251 10.506 11.205 A 208.007 208.007 0 0 0 10.425 13.062 Q 10.341 15.193 10.315 17.821 A 249.976 249.976 0 0 0 10.303 20.313 Z M 207.178 58.594 L 205.273 54.688 L 201.978 54.688 L 197.656 54.688 L 192.822 54.688 A 471.487 471.487 0 0 0 190.393 54.694 A 403.948 403.948 0 0 0 188.086 54.712 A 2079.018 2079.018 0 0 0 185.937 54.736 A 1561.891 1561.891 0 0 0 183.984 54.761 Q 182.564 54.779 181.63 54.784 A 112.824 112.824 0 0 1 181.104 54.785 L 179.297 58.594 A 359.223 359.223 0 0 0 178.466 60.266 Q 177.814 61.588 177.295 62.671 A 74.763 74.763 0 0 0 176.714 63.913 Q 176.432 64.529 176.196 65.082 A 39.817 39.817 0 0 0 175.928 65.723 A 25.337 25.337 0 0 0 175.566 66.66 Q 175.299 67.398 175.146 67.993 A 8.123 8.123 0 0 0 174.956 68.97 A 6.294 6.294 0 0 0 174.902 69.775 Q 174.902 70.214 174.935 70.474 A 1.985 1.985 0 0 0 174.951 70.581 Q 174.984 70.759 175.038 70.884 A 0.713 0.713 0 0 0 175.098 70.996 L 175.098 71.191 L 166.504 71.191 L 166.504 70.996 A 2.782 2.782 0 0 0 166.686 70.792 Q 167.017 70.385 167.578 69.507 Q 168.082 68.718 168.689 67.687 A 98.846 98.846 0 0 0 169.263 66.699 A 95.047 95.047 0 0 0 170.251 64.929 A 130.865 130.865 0 0 0 171.313 62.939 A 135.121 135.121 0 0 0 173.486 58.594 L 193.408 17.48 L 197.07 17.48 L 216.602 58.594 A 116.668 116.668 0 0 0 218.586 62.546 A 105.799 105.799 0 0 0 218.872 63.086 Q 220.02 65.234 220.996 66.919 Q 221.967 68.594 222.696 69.689 A 28.221 28.221 0 0 0 222.705 69.702 Q 223.435 70.797 223.68 70.995 A 0.481 0.481 0 0 0 223.682 70.996 L 223.682 71.191 L 211.182 71.191 Q 211.279 70.801 211.279 70.483 L 211.279 69.775 A 6.261 6.261 0 0 0 211.214 68.908 Q 211.153 68.472 211.034 67.982 A 13.752 13.752 0 0 0 210.815 67.188 A 33.23 33.23 0 0 0 210.01 64.876 A 37.596 37.596 0 0 0 209.692 64.087 A 59.263 59.263 0 0 0 208.347 61.081 A 54.241 54.241 0 0 0 208.325 61.035 Q 207.617 59.57 207.178 58.594 Z M 47.217 51.074 L 47.217 38.77 A 340.004 340.004 0 0 0 47.203 35.635 Q 47.18 33.157 47.119 31.128 A 181.181 181.181 0 0 0 47.036 28.816 Q 46.957 26.993 46.851 25.513 Q 46.68 23.145 46.411 21.533 A 26.325 26.325 0 0 0 46.218 20.495 Q 46.121 20.032 46.017 19.632 A 11.589 11.589 0 0 0 45.801 18.896 L 45.801 18.701 L 57.129 18.701 L 57.129 18.896 Q 56.883 19.635 56.675 20.676 A 27.262 27.262 0 0 0 56.519 21.533 A 30.764 30.764 0 0 0 56.331 22.848 Q 56.258 23.44 56.195 24.107 A 63.776 63.776 0 0 0 56.079 25.513 A 100.902 100.902 0 0 0 55.961 27.412 Q 55.916 28.255 55.879 29.184 A 186.09 186.09 0 0 0 55.811 31.128 Q 55.713 34.375 55.713 38.77 L 55.713 51.074 A 341.133 341.133 0 0 0 55.727 54.212 Q 55.75 56.696 55.811 58.74 A 182.341 182.341 0 0 0 55.894 61.067 Q 55.972 62.9 56.079 64.38 Q 56.25 66.748 56.519 68.359 A 26.325 26.325 0 0 0 56.712 69.398 Q 56.808 69.861 56.912 70.26 A 11.589 11.589 0 0 0 57.129 70.996 L 57.129 71.191 L 45.801 71.191 L 45.801 70.996 Q 46.047 70.258 46.255 69.217 A 27.262 27.262 0 0 0 46.411 68.359 A 30.764 30.764 0 0 0 46.599 67.044 Q 46.671 66.452 46.734 65.786 A 63.776 63.776 0 0 0 46.851 64.38 Q 46.968 62.752 47.051 60.697 A 187.389 187.389 0 0 0 47.119 58.74 A 196.732 196.732 0 0 0 47.179 56.129 Q 47.217 53.821 47.217 51.074 Z M 503.662 22.07 L 503.662 45.703 A 26.231 26.231 0 0 0 505.64 45.923 A 27.045 27.045 0 0 0 507.218 45.994 A 24.031 24.031 0 0 0 507.568 45.996 A 18.229 18.229 0 0 0 511.095 45.677 Q 514.656 44.974 516.821 42.725 Q 519.971 39.453 519.971 32.91 A 18.569 18.569 0 0 0 519.674 29.483 Q 519.306 27.526 518.483 25.976 A 9.857 9.857 0 0 0 517.456 24.414 A 8.113 8.113 0 0 0 512.651 21.543 A 12.506 12.506 0 0 0 510.059 21.289 A 34.153 34.153 0 0 0 508.762 21.312 Q 508.17 21.335 507.644 21.379 A 19.383 19.383 0 0 0 507.3 21.411 A 39.502 39.502 0 0 0 506.454 21.506 Q 506.123 21.547 505.828 21.591 A 19.623 19.623 0 0 0 505.273 21.68 Q 504.346 21.875 503.662 22.07 Z M 193.408 29.199 L 183.008 50.879 L 185.986 50.879 A 379.393 379.393 0 0 0 188.104 50.873 A 456.279 456.279 0 0 0 190.356 50.855 A 443.025 443.025 0 0 1 195.02 50.83 Q 197.363 50.83 199.561 50.806 A 425.744 425.744 0 0 1 201.586 50.788 Q 202.609 50.781 203.516 50.781 L 193.408 29.199 Z"
              vector-effect="non-scaling-stroke"/>
    </g>
</svg>
